<?xml version="1.0" encoding="utf-8"?>
<!-- Generator: Adobe Illustrator 24.1.0, SVG Export Plug-In . SVG Version: 6.00 Build 0)  -->
<svg version="1.1" id="Capa_1" xmlns="http://www.w3.org/2000/svg" xmlns:xlink="http://www.w3.org/1999/xlink" x="0px" y="0px"
	 viewBox="0 0 50 50" style="enable-background:new 0 0 50 50;" xml:space="preserve">
<style type="text/css">
	.st0{fill:#FF9F00;}
</style>
<g>
	<g>
		<g>
			<path class="st0" d="M13.7,31.27c0.45-0.26,0.61-0.84,0.35-1.3c-0.26-0.45-0.84-0.61-1.3-0.35c-0.45,0.26-0.61,0.84-0.35,1.3
				C12.66,31.37,13.24,31.53,13.7,31.27L13.7,31.27z M13.7,31.27"/>
			<path class="st0" d="M9.81,37.82l4.78,8.28c1.03,1.79,3.35,2.45,5.19,1.39c1.82-1.05,2.44-3.37,1.39-5.19l-2.85-4.93l2.47-1.42
				c0.45-0.26,0.61-0.84,0.35-1.3l-1.23-2.14c0.15-0.03,1.12-0.22,18.19-3.57c2.11-0.11,3.38-2.42,2.31-4.27l-3.16-5.47l2.02-3.05
				c0.2-0.3,0.21-0.69,0.03-1l-1.9-3.29c-0.18-0.31-0.52-0.49-0.88-0.47l-3.65,0.22l-3.5-6.07c-0.51-0.88-1.42-1.41-2.43-1.42
				c-0.01,0-0.02,0-0.04,0c-0.98,0-1.87,0.49-2.4,1.31l-12.4,15.8l-8.06,4.66c-3.17,1.83-4.27,5.9-2.43,9.08
				C3.26,37.88,6.8,39.02,9.81,37.82L9.81,37.82z M19.52,43.25c0.52,0.91,0.21,2.07-0.7,2.59c-0.91,0.53-2.08,0.2-2.59-0.7
				l-4.75-8.22l3.29-1.9C20.27,44.55,19.43,43.1,19.52,43.25L19.52,43.25z M17.37,35.72l-0.95-1.64l1.64-0.95l0.95,1.64L17.37,35.72
				z M26.07,6.48c0.25-0.42,0.66-0.46,0.82-0.46c0.16,0,0.57,0.05,0.81,0.47l11.04,19.13c0.36,0.62-0.08,1.41-0.8,1.42
				c-0.13,0-0.19,0.03-0.52,0.09L25.75,6.9C25.99,6.59,26.02,6.56,26.07,6.48L26.07,6.48z M24.48,8.51l10.98,19.01l-16.56,3.25
				l-5.04-8.72L24.48,8.51z M3.23,34.02c-0.42-0.72-0.64-1.54-0.64-2.37c0-1.69,0.91-3.27,2.38-4.12l7.4-4.27l4.75,8.22l-7.4,4.27
				C7.45,37.07,4.54,36.29,3.23,34.02L3.23,34.02z M3.23,34.02"/>
			<path class="st0" d="M10.76,31.87c-0.26-0.45-0.84-0.61-1.3-0.35l-1.64,0.95c-0.45,0.26-1.04,0.11-1.3-0.35
				c-0.26-0.45-0.84-0.61-1.3-0.35c-0.45,0.26-0.61,0.84-0.35,1.3c0.78,1.35,2.52,1.83,3.89,1.04l1.64-0.95
				C10.86,32.9,11.02,32.32,10.76,31.87L10.76,31.87z M10.76,31.87"/>
			<path class="st0" d="M47.9,6.15L42.6,9.1c-0.46,0.25-0.62,0.83-0.37,1.29c0.25,0.46,0.83,0.62,1.29,0.37l5.29-2.94
				c0.46-0.26,0.62-0.83,0.37-1.29C48.93,6.06,48.35,5.9,47.9,6.15L47.9,6.15z M47.9,6.15"/>
			<path class="st0" d="M47.34,15.99L43.67,15c-0.51-0.14-1.03,0.16-1.16,0.67c-0.14,0.51,0.17,1.03,0.67,1.16l3.67,0.98
				c0.51,0.14,1.03-0.17,1.16-0.67C48.15,16.64,47.85,16.12,47.34,15.99L47.34,15.99z M47.34,15.99"/>
			<path class="st0" d="M38.12,2.7l-0.98,3.67C37,6.88,37.3,7.4,37.81,7.54c0.51,0.14,1.03-0.16,1.16-0.67l0.98-3.67
				c0.14-0.51-0.16-1.03-0.67-1.16C38.78,1.9,38.26,2.2,38.12,2.7L38.12,2.7z M38.12,2.7"/>
		</g>
	</g>
</g>
</svg>
