<?xml version="1.0" encoding="utf-8"?>
<!-- Generator: Adobe Illustrator 24.1.0, SVG Export Plug-In . SVG Version: 6.00 Build 0)  -->
<svg version="1.1" id="Capa_1" xmlns="http://www.w3.org/2000/svg" xmlns:xlink="http://www.w3.org/1999/xlink" x="0px" y="0px"
	 viewBox="0 0 50 50" style="enable-background:new 0 0 50 50;" xml:space="preserve">
<style type="text/css">
	.st0{fill:#FF9F00;}
</style>
<g>
	<path class="st0" d="M47.32,24.09l-0.08-0.08l-4.3-4.08l-3.21-3.05l-0.01-0.01l-0.01-0.01c-0.44-0.43-1.01-0.67-1.63-0.67
		c-0.62,0-1.21,0.24-1.64,0.69c-0.43,0.44-0.67,1.02-0.67,1.64c0,0.61,0.24,1.18,0.67,1.62l4.03,3.74h-23.6
		c-1.02,0-1.84,0.82-1.84,1.84l0,0c0,1.02,0.82,1.84,1.84,1.84h24.01l-2.65,3.61l-0.05,0.06l-0.05,0.06
		c-0.35,0.39-0.53,0.89-0.51,1.41c0.02,0.52,0.25,1,0.64,1.36c0.36,0.33,0.83,0.51,1.31,0.51c0.5,0,0.98-0.19,1.34-0.52l6.32-6.76
		l0.03-0.03l0.03-0.03c0.11-0.1,0.2-0.21,0.28-0.33c0.59-0.86,0.49-2.02-0.23-2.77L47.32,24.09z"/>
	<path class="st0" d="M33.09,32.59c0.11,2.48,0.2,4.95,0.27,7.43l0.06,1.86l0.03,0.93l0.01,0.23l-0.01,0.39
		c-0.02,0.27-0.06,0.55-0.13,0.82c-0.27,1.08-0.96,2.04-1.89,2.65c-0.47,0.31-0.99,0.53-1.55,0.65c-0.28,0.06-0.56,0.09-0.84,0.1
		l-0.48,0.02l-14.86,0.29l-3.71,0.07l-1.86,0.03l-0.93,0.01c-0.56,0.01-1.21-0.1-1.78-0.31c-1.16-0.43-2.14-1.29-2.71-2.39
		c-0.29-0.55-0.47-1.16-0.53-1.77l-0.03-0.46l0-0.26l0-0.46L2.1,38.67L2.03,23.81L2.07,8.95L2.09,7.1L2.1,6.74
		c0.01-0.16,0.02-0.31,0.05-0.46c0.04-0.31,0.12-0.62,0.22-0.91c0.2-0.59,0.52-1.15,0.92-1.62C4.08,2.79,5.25,2.15,6.48,2
		c0.15-0.02,0.31-0.03,0.46-0.04l0.22-0.01l0.12,0l0.46,0l0.93,0.01c2.48,0.02,4.95,0.05,7.43,0.11l7.43,0.15l3.71,0.07l1.96,0.05
		c1.14,0.06,2.26,0.57,3.05,1.39c0.79,0.81,1.26,1.94,1.28,3.06l0,0.2l0,0.12l-0.01,0.23l-0.02,0.46l-0.03,0.93l-0.12,3.71
		c-0.07,2.48-0.17,4.95-0.28,7.43c-0.04,0.87-0.78,1.55-1.66,1.51c-0.82-0.04-1.47-0.7-1.51-1.51c-0.12-2.48-0.21-4.95-0.28-7.43
		l-0.12-3.71l-0.03-0.93l-0.02-0.46l-0.01-0.23l0-0.12c0-0.02-0.01-0.02-0.01-0.03c-0.02-0.12-0.09-0.2-0.17-0.26
		c-0.09-0.07-0.17-0.09-0.27-0.08l-1.76,0.03l-3.71,0.07l-7.43,0.15c-2.48,0.06-4.95,0.08-7.43,0.11L7.75,6.99l-0.46,0L7.17,7
		C7.15,7,7.16,7,7.16,7s0,0,0,0c0.01,0,0.02,0,0.03,0.01c0,0,0.01,0,0.02-0.01c0,0,0-0.01,0.01-0.01l0,0l0,0l0,0.11l0.02,1.86
		l0.04,14.86L7.2,38.67l-0.04,3.71l0,0.46l0,0.21c0,0,0,0,0,0l-0.01,0c-0.01,0,0,0.02,0,0.02l6.54,0.12l14.86,0.29L29,43.51
		c0.03,0,0.06,0.01,0.09,0.01c0.06,0,0.11-0.01,0.17-0.04c0.11-0.05,0.21-0.15,0.27-0.27c0.02-0.03,0.02-0.06,0.03-0.1
		c0-0.03,0.01-0.02,0.01-0.07l0.01-0.23l0.03-0.93l0.06-1.86c0.07-2.48,0.16-4.95,0.27-7.43c0.04-0.87,0.78-1.55,1.65-1.52
		C32.4,31.11,33.05,31.78,33.09,32.59z"/>
</g>
</svg>
