<?xml version="1.0" encoding="utf-8"?>
<!-- Generator: Adobe Illustrator 24.1.0, SVG Export Plug-In . SVG Version: 6.00 Build 0)  -->
<svg version="1.1" id="Capa_1" xmlns="http://www.w3.org/2000/svg" xmlns:xlink="http://www.w3.org/1999/xlink" x="0px" y="0px"
	 viewBox="0 0 50 50" style="enable-background:new 0 0 50 50;" xml:space="preserve">
<style type="text/css">
	.st0{fill:#FF9F00;}
</style>
<path class="st0" d="M38.42,32.8c-2.1,0-3.99,0.85-5.37,2.22l-14.11-8.1c0.16-0.61,0.24-1.26,0.24-1.92c0-0.63-0.08-1.25-0.22-1.83
	l14.16-8.12c1.37,1.34,3.24,2.16,5.3,2.16c4.2,0,7.6-3.4,7.6-7.6S42.62,2,38.42,2s-7.6,3.4-7.6,7.6c0,0.63,0.08,1.25,0.22,1.83
	l-14.16,8.12c-1.37-1.34-3.24-2.16-5.3-2.16c-4.2,0-7.6,3.4-7.6,7.6s3.4,7.6,7.6,7.6c2.03,0,3.88-0.8,5.24-2.1l14.2,8.15
	c-0.13,0.56-0.2,1.15-0.2,1.75c0,4.2,3.4,7.6,7.6,7.6s7.6-3.4,7.6-7.6C46.02,36.2,42.62,32.8,38.42,32.8z"/>
</svg>
