<?xml version="1.0" encoding="utf-8"?>
<!-- Generator: Adobe Illustrator 24.1.0, SVG Export Plug-In . SVG Version: 6.00 Build 0)  -->
<svg version="1.1" id="Capa_1" xmlns="http://www.w3.org/2000/svg" xmlns:xlink="http://www.w3.org/1999/xlink" x="0px" y="0px"
	 viewBox="0 0 50 50" style="enable-background:new 0 0 50 50;" xml:space="preserve">
<style type="text/css">
	.st0{fill:#FF9F00;}
</style>
<g>
	<path class="st0" d="M44.74,20.29c-0.94-0.35-1.91-0.34-2.88-0.32c-0.27,0-0.38-0.08-0.48-0.34c-0.31-0.81-0.63-1.61-0.99-2.4
		c-0.13-0.29-0.1-0.45,0.13-0.65c0.29-0.26,0.56-0.54,0.83-0.82c1.75-1.84,1.86-4.69,0.24-6.69c-1.53-1.9-4.34-2.4-6.45-1.08
		c-0.65,0.41-1.19,0.99-1.76,1.52c-0.19,0.18-0.33,0.22-0.58,0.11c-0.82-0.37-1.65-0.71-2.48-1.03c-0.23-0.09-0.29-0.19-0.29-0.42
		c0.01-0.48,0.01-0.96-0.02-1.44C29.85,4.05,27.66,2,24.98,2c-2.66,0-4.85,2.09-5,4.78c-0.02,0.42-0.03,0.84-0.01,1.26
		c0.02,0.34-0.07,0.51-0.42,0.6c-0.4,0.1-0.79,0.27-1.18,0.43c-0.49,0.21-1.02,0.68-1.46,0.59c-0.46-0.09-0.81-0.69-1.22-1.06
		c-1.77-1.65-4.42-1.77-6.48-0.29c-1.82,1.31-2.47,3.94-1.52,6.05c0.41,0.92,1.11,1.59,1.81,2.26c0.18,0.18,0.23,0.31,0.12,0.57
		c-0.37,0.82-0.7,1.65-1.03,2.48c-0.08,0.22-0.18,0.3-0.42,0.3c-0.45-0.02-0.9-0.01-1.35,0.01C4.12,20.11,2.01,22.29,2,24.97
		c-0.01,2.71,2.08,4.9,4.82,5.05c0.45,0.02,0.9,0.03,1.35,0.01c0.26-0.01,0.36,0.09,0.44,0.33c0.15,0.47,0.33,0.93,0.51,1.39
		c0.19,0.45,0.62,0.94,0.54,1.33c-0.08,0.42-0.63,0.75-0.97,1.12c-1.39,1.53-1.78,3.28-1.11,5.24c0.17,0.49,0.47,0.93,0.7,1.39
		c0.3,0.3,0.59,0.59,0.89,0.89c0.79,0.49,1.61,0.91,2.56,1c1.57,0.14,2.92-0.32,4.07-1.4c0.36-0.34,0.67-0.9,1.07-0.97
		c0.4-0.08,0.88,0.34,1.34,0.52c0.44,0.18,0.88,0.37,1.34,0.5c0.34,0.1,0.44,0.26,0.42,0.6c-0.03,0.42-0.01,0.84,0.01,1.26
		c0.14,2.68,2.32,4.77,4.99,4.78c2.66,0.02,4.88-2.07,5.04-4.74c0.03-0.48,0.03-0.96,0.02-1.44c0-0.23,0.06-0.34,0.29-0.42
		c0.85-0.33,1.69-0.68,2.52-1.04c0.22-0.1,0.34-0.07,0.5,0.09c0.56,0.52,1.07,1.11,1.71,1.5c1.86,1.13,3.74,1.06,5.57-0.15
		c0.06-0.04,0.13-0.06,0.2-0.09c0.3-0.3,0.59-0.59,0.89-0.89c0.03-0.07,0.05-0.14,0.09-0.2c1.21-1.83,1.29-3.71,0.15-5.57
		c-0.39-0.64-0.99-1.15-1.51-1.71c-0.16-0.17-0.18-0.28-0.09-0.5c0.37-0.83,0.72-1.68,1.04-2.52c0.09-0.23,0.2-0.29,0.42-0.29
		c0.52,0.01,1.05,0.01,1.57-0.03c2.34-0.18,4.25-2.01,4.56-4.36C48.26,23.34,46.91,21.11,44.74,20.29z M42.91,27.15
		c-0.75,0.01-1.5,0-2.25,0c-0.99,0-1.47,0.36-1.71,1.3c-0.35,1.4-0.9,2.72-1.64,3.96c-0.5,0.82-0.41,1.42,0.26,2.1
		c0.54,0.54,1.08,1.08,1.62,1.62c0.88,0.9,0.9,2.25,0.03,3.1c-0.85,0.84-2.18,0.83-3.07-0.03c-0.58-0.57-1.14-1.15-1.72-1.71
		c-0.57-0.56-1.19-0.66-1.88-0.25c-1.33,0.79-2.75,1.38-4.25,1.76c-0.76,0.19-1.14,0.71-1.15,1.51c-0.01,0.78,0.01,1.56,0,2.34
		c-0.01,1.32-0.92,2.28-2.14,2.28c-1.24,0.01-2.16-0.97-2.17-2.31c-0.01-0.76,0.01-1.53,0-2.29c-0.01-0.84-0.39-1.34-1.22-1.55
		c-1.45-0.37-2.81-0.92-4.09-1.69c-0.79-0.48-1.39-0.38-2.06,0.28c-0.27,0.26-0.53,0.53-0.79,0.79c-0.25,0.25-0.51,0.51-0.76,0.76
		c-0.95,0.94-2.29,0.98-3.16,0.1c-0.86-0.87-0.82-2.2,0.1-3.13c0.55-0.55,1.1-1.1,1.65-1.65c0.56-0.57,0.65-1.19,0.25-1.88
		c-0.79-1.34-1.38-2.75-1.76-4.25c-0.19-0.76-0.72-1.14-1.51-1.15c-0.79-0.01-1.59,0.01-2.38,0c-1.28-0.02-2.23-0.93-2.24-2.14
		c-0.01-1.22,0.96-2.15,2.26-2.17c0.76-0.01,1.53,0,2.29,0c0.88-0.01,1.38-0.38,1.59-1.22c0.37-1.46,0.94-2.83,1.71-4.13
		c0.45-0.76,0.36-1.35-0.27-1.98c-0.5-0.5-0.97-1.02-1.5-1.49c-1.17-1.04-0.95-2.51-0.19-3.27c0.74-0.73,2.2-0.98,3.27,0.22
		c0.48,0.54,1.01,1.02,1.52,1.53c0.57,0.56,1.19,0.66,1.88,0.25c1.33-0.79,2.75-1.38,4.25-1.76c0.76-0.19,1.14-0.71,1.15-1.51
		c0.01-0.78,0-1.56,0-2.34c0.01-1.31,0.92-2.28,2.14-2.28c1.23,0,2.15,0.95,2.17,2.26c0.01,0.75,0,1.5,0,2.25
		c0,0.94,0.36,1.42,1.26,1.65c1.43,0.36,2.78,0.92,4.04,1.68c0.79,0.47,1.39,0.38,2.06-0.28c0.54-0.54,1.08-1.08,1.62-1.62
		c0.9-0.88,2.25-0.9,3.1-0.03c0.84,0.85,0.83,2.18-0.04,3.07c-0.57,0.58-1.15,1.14-1.71,1.72c-0.56,0.57-0.66,1.19-0.25,1.88
		c0.79,1.33,1.38,2.74,1.76,4.25c0.19,0.76,0.71,1.14,1.51,1.15c0.79,0.01,1.59,0,2.38,0c1.28,0.01,2.23,0.93,2.24,2.14
		C45.13,26.2,44.18,27.13,42.91,27.15z"/>
	<path class="st0" d="M17.9,17.87c-3.94,3.93-3.94,10.32,0,14.26c3.92,3.92,10.3,3.91,14.22-0.02c3.92-3.93,3.92-10.31,0-14.22
		C28.19,13.97,21.82,13.96,17.9,17.87z M30.01,30.15c-2.81,2.76-7.39,2.69-10.18-0.15c-2.75-2.8-2.68-7.36,0.15-10.15
		c2.79-2.74,7.37-2.71,10.11,0.08C32.9,22.78,32.86,27.35,30.01,30.15z"/>
</g>
</svg>
