<?xml version="1.0" encoding="utf-8"?>
<!-- Generator: Adobe Illustrator 24.1.0, SVG Export Plug-In . SVG Version: 6.00 Build 0)  -->
<svg version="1.1" id="Layer_1" xmlns="http://www.w3.org/2000/svg" xmlns:xlink="http://www.w3.org/1999/xlink" x="0px" y="0px"
	 viewBox="0 0 50 50" style="enable-background:new 0 0 50 50;" xml:space="preserve">
<g>
	<path d="M48.4,21.9L31.1,9.4L26.5,6c-0.9-0.7-2.1-0.7-3.1,0l-4.6,3.4L8.5,16.9l-6.9,5c-1.2,0.9-1.5,2.5-0.6,3.7
		c0.8,1.2,2.5,1.5,3.7,0.6l3.9-2.8L24,12.2c0.6-0.4,1.4-0.4,2,0l15.5,11.3l3.9,2.8c0.5,0.3,1,0.5,1.5,0.5c0.8,0,1.6-0.4,2.1-1.1
		C49.9,24.5,49.6,22.8,48.4,21.9z"/>
	<path d="M40.8,26L26,15.3c-0.6-0.4-1.4-0.4-2,0L9.2,26c-0.4,0.3-0.7,0.8-0.7,1.4v15.3c0,0.9,0.8,1.7,1.7,1.7h9.2
		c-0.1-0.2-0.1-0.4-0.1-0.6v-8c0-0.9,0.8-1.7,1.7-1.7h7.9c0.9,0,1.7,0.8,1.7,1.7v8c0,0.2,0,0.4-0.1,0.6h9.2c0.9,0,1.7-0.8,1.7-1.7
		V27.4C41.5,26.8,41.2,26.3,40.8,26z"/>
</g>
</svg>
