<?xml version="1.0" encoding="utf-8"?>
<!-- Generator: Adobe Illustrator 24.1.0, SVG Export Plug-In . SVG Version: 6.00 Build 0)  -->
<svg version="1.1" id="Capa_1" xmlns="http://www.w3.org/2000/svg" xmlns:xlink="http://www.w3.org/1999/xlink" x="0px" y="0px"
	 viewBox="0 0 50 50" style="enable-background:new 0 0 50 50;" xml:space="preserve">
<style type="text/css">
	.st0{fill:#FF9F00;}
</style>
<g>
	<path class="st0" d="M24.32,28.3c0.49,0.27,0.97,0.35,1.42,0.24c0.45-0.11,0.83-0.4,1.15-0.86c2.34-3.44,10.44-14.6,15.06-20.95
		c0.29-0.39,0.21-0.95-0.17-1.25c-0.89-0.7-2.02-0.95-3.1-0.69L3.33,13.4c-1.08,0.26-1.97,1.01-2.44,2.04
		c-0.2,0.45-0.02,0.97,0.42,1.19C8.33,20.14,20.66,26.32,24.32,28.3z"/>
	<path class="st0" d="M49.09,32.2L43.68,9.98c-0.08-0.34-0.36-0.61-0.71-0.68c-0.35-0.07-0.7,0.07-0.91,0.36
		c-5.12,7.05-11.65,16.07-13.67,19.03c-1.13,1.67-3.15,2.16-4.93,1.2c-3.37-1.82-14.54-7.43-20.89-10.61
		c-0.32-0.16-0.7-0.12-0.97,0.1c-0.28,0.22-0.4,0.58-0.32,0.93l5.42,22.22c0.48,1.95,2.45,3.15,4.4,2.67l35.34-8.61
		C48.37,36.12,49.57,34.15,49.09,32.2z"/>
</g>
</svg>
