<?xml version="1.0" encoding="utf-8"?>
<!-- Generator: Adobe Illustrator 24.1.0, SVG Export Plug-In . SVG Version: 6.00 Build 0)  -->
<svg version="1.1" id="Capa_1" xmlns="http://www.w3.org/2000/svg" xmlns:xlink="http://www.w3.org/1999/xlink" x="0px" y="0px"
	 viewBox="0 0 50 50" style="enable-background:new 0 0 50 50;" xml:space="preserve">
<style type="text/css">
	.st0{fill:#FF9F00;}
</style>
<g>
	<g>
		<path class="st0" d="M46.69,23.37l-5.59-5.59c0.9-0.29,1.72-0.78,2.38-1.44l0.14-0.14c2.46-2.46,2.27-6.67-0.44-9.38
			c-1.29-1.29-2.96-2.06-4.69-2.16c-1.81-0.11-3.47,0.5-4.69,1.72l-0.14,0.14C33,7.18,32.5,7.99,32.22,8.9L26.62,3.3
			c-1.65-1.65-4.23-1.75-5.76-0.22L15.8,8.15c-0.62,0.62-0.88,1.52-0.69,2.41c0.2,0.97,0.88,1.76,1.81,2.12
			c0.58,0.23,1.11,0.57,1.57,1.03l0.16,0.16c0.78,0.78,1.24,1.77,1.3,2.79c0.06,0.95-0.25,1.81-0.86,2.43
			c-0.61,0.61-1.48,0.92-2.43,0.86c-1.02-0.06-2.01-0.52-2.79-1.3l-0.16-0.16c-0.46-0.46-0.81-0.99-1.03-1.57
			c-0.36-0.93-1.15-1.6-2.12-1.81c-0.89-0.19-1.79,0.07-2.41,0.69l-5.06,5.06c-1.53,1.53-1.43,4.11,0.22,5.76l5.59,5.59
			C7.99,32.5,7.18,33,6.51,33.66L6.37,33.8c-2.46,2.46-2.27,6.67,0.44,9.38c1.44,1.44,3.3,2.17,5.1,2.17c1.59,0,3.13-0.57,4.29-1.73
			l0.14-0.14C17,42.82,17.49,42,17.78,41.1l5.59,5.59c0.78,0.78,1.78,1.24,2.84,1.3c0.08,0,0.16,0.01,0.24,0.01
			c1.02,0,1.98-0.39,2.68-1.09l4.82-4.82c0.37,0.91,0.93,1.73,1.64,2.45l0.16,0.16c2.71,2.71,6.92,2.91,9.38,0.44
			c2.46-2.46,2.27-6.67-0.44-9.38l-0.16-0.16c-0.71-0.71-1.54-1.27-2.45-1.64l4.83-4.83c0.75-0.75,1.15-1.82,1.08-2.92
			C47.93,25.16,47.47,24.15,46.69,23.37z M44.83,27.05l-5.07,5.07c-0.62,0.62-0.88,1.52-0.69,2.41c0.2,0.97,0.88,1.76,1.81,2.12
			c0.58,0.23,1.11,0.57,1.57,1.03l0.16,0.16c1.56,1.56,1.76,3.9,0.44,5.22c-1.32,1.32-3.66,1.12-5.22-0.44l-0.16-0.16
			c-0.46-0.46-0.81-0.99-1.03-1.57c-0.36-0.93-1.15-1.6-2.12-1.81c-0.89-0.19-1.79,0.07-2.41,0.69l-5.06,5.06
			c-0.2,0.2-0.47,0.23-0.66,0.22c-0.33-0.02-0.67-0.18-0.93-0.44l-5.85-5.85c-0.56-0.56-1.29-0.86-2.03-0.86
			c-0.26,0-0.51,0.04-0.76,0.11c-0.91,0.27-1.56,0.98-1.76,1.91c-0.12,0.58-0.39,1.08-0.79,1.48l-0.14,0.14
			c-1.32,1.32-3.66,1.12-5.22-0.44c-1.56-1.56-1.76-3.9-0.44-5.22l0.14-0.14c0.4-0.4,0.9-0.67,1.48-0.79
			c0.93-0.2,1.64-0.86,1.91-1.76c0.29-0.97,0-2.04-0.75-2.8l-5.85-5.85c-0.26-0.26-0.42-0.6-0.44-0.93
			c-0.01-0.19,0.02-0.46,0.22-0.66l4.82-4.82c0.37,0.91,0.93,1.73,1.64,2.45l0.16,0.16c2.71,2.71,6.92,2.91,9.38,0.44
			c2.46-2.46,2.27-6.67-0.44-9.38l-0.16-0.16c-0.71-0.71-1.54-1.27-2.45-1.64l4.83-4.83c0.37-0.37,1.1-0.27,1.59,0.22l5.85,5.85
			c0.75,0.75,1.82,1.04,2.8,0.75c0.91-0.27,1.56-0.98,1.76-1.91C35.07,9.5,35.34,9,35.74,8.6l0.14-0.14
			c0.61-0.61,1.48-0.92,2.43-0.86c1.02,0.06,2.01,0.52,2.79,1.3c1.56,1.56,1.76,3.9,0.44,5.22l-0.14,0.14
			c-0.4,0.4-0.9,0.67-1.48,0.79c-0.93,0.2-1.64,0.85-1.91,1.76c-0.29,0.97,0,2.04,0.75,2.8l5.85,5.85c0.26,0.26,0.42,0.6,0.44,0.93
			C45.06,26.58,45.04,26.84,44.83,27.05z"/>
	</g>
</g>
</svg>
