<?xml version="1.0" encoding="utf-8"?>
<!-- Generator: Adobe Illustrator 24.1.0, SVG Export Plug-In . SVG Version: 6.00 Build 0)  -->
<svg version="1.1" id="Layer_1" xmlns="http://www.w3.org/2000/svg" xmlns:xlink="http://www.w3.org/1999/xlink" x="0px" y="0px"
	 viewBox="0 0 50 50" style="enable-background:new 0 0 50 50;" xml:space="preserve">
<path d="M43.2,17.1C43.2,17.1,43.2,17.1,43.2,17.1l-3.7-1.3c1.3-1.5,1.8-3.6,1.3-5.6c-0.5-2.2-2.1-3.9-4.3-4.5
	c-2.1-0.7-4.4-0.2-6.1,1.3l-2.3,2l-0.5-3c-0.3-2.2-1.8-4-3.8-4.9c-2.1-0.9-4.4-0.6-6.2,0.7c-1.6,1.2-2.6,3.1-2.6,5.1l-3.4-1.2
	c-1.2-0.4-2.5-0.4-3.7,0.2C6.9,6.4,6,7.3,5.6,8.6l-1.9,5.2c-0.2,0.5-0.2,1.1,0.1,1.6c0.2,0.5,0.7,0.9,1.2,1.1
	c0.2,0.1,12,4.4,18.1,6.6H5.9c-1.1,0-2.1,0.9-2.1,2.1v19.5c0,2.7,2.2,4.9,4.9,4.9h27.9c2.7,0,4.9-2.2,4.9-4.9V29.7l0.2,0.1
	c0.5,0.2,1.1,0.2,1.6-0.1c0.5-0.2,0.9-0.7,1.1-1.2l1.9-5.2C47.1,20.8,45.8,18,43.2,17.1z M23.3,27.2v18.1h-1.4V27.2H23.3z
	 M17.8,27.2v18.1H8.7C8.3,45.3,8,45,8,44.6V27.2H17.8z M41.8,21c0.2,0.1,0.3,0.2,0.4,0.4c0.1,0.2,0.1,0.4,0,0.5v0L41,25.2l-11.8-4.3
	l1.4-3.9L41.8,21z M33.3,10C33.3,10,33.3,10,33.3,10c0.6-0.5,1.4-0.7,2.1-0.4c0.7,0.2,1.3,0.8,1.5,1.6c0.2,0.8-0.1,1.6-0.7,2.1
	c-0.6,0.5-1.4,0.7-2.2,0.4l-3.4-1.3L33.3,10z M37.3,28.2v16.4c0,0.4-0.3,0.7-0.7,0.7h-9.1V27.2h7L37.3,28.2z M8.3,13.3L9.5,10
	c0.1-0.2,0.2-0.3,0.4-0.4c0.2-0.1,0.4-0.1,0.5,0c1.3,0.5,8.8,3.2,11.1,4.1l-1.4,3.9L8.3,13.3z M24,19l1.4-3.9l1.3,0.5l-1.4,3.9
	L24,19z M20.3,5.1c0.4-0.3,0.8-0.4,1.3-0.4c0.3,0,0.6,0.1,0.8,0.2c0.7,0.3,1.2,0.9,1.3,1.7l0.5,3.6C23,9.7,21.2,9,20.8,8.9
	C20,8.6,19.5,8,19.4,7.2C19.3,6.3,19.6,5.6,20.3,5.1z"/>
</svg>
