<?xml version="1.0" encoding="utf-8"?>
<!-- Generator: Adobe Illustrator 24.1.0, SVG Export Plug-In . SVG Version: 6.00 Build 0)  -->
<svg version="1.1" id="Capa_1" xmlns="http://www.w3.org/2000/svg" xmlns:xlink="http://www.w3.org/1999/xlink" x="0px" y="0px"
	 viewBox="0 0 50 50" style="enable-background:new 0 0 50 50;" xml:space="preserve">
<style type="text/css">
	.st0{fill:#FF9F00;}
</style>
<g>
	<g>
		<path class="st0" d="M47.95,44.1h-3.91V22.22c0-0.4-0.32-0.72-0.72-0.72h-7.63c-0.4,0-0.72,0.32-0.72,0.72V44.1h-5.44V30.62
			c0-0.4-0.32-0.72-0.72-0.72h-7.63c-0.4,0-0.72,0.32-0.72,0.72V44.1h-5.44v-9.67c0-0.4-0.32-0.72-0.72-0.72H6.68
			c-0.4,0-0.72,0.32-0.72,0.72v9.67H2.05c-0.75,0-1.36,0.61-1.36,1.36v0c0,0.75,0.61,1.36,1.36,1.36h45.9
			c0.75,0,1.36-0.61,1.36-1.36v0C49.31,44.71,48.7,44.1,47.95,44.1z"/>
		<path class="st0" d="M47.1,3.74c-0.48-0.43-1.12-0.62-1.76-0.54l-6.11,0.76c-1.21,0.15-2.1,1.29-1.95,2.5
			c0.15,1.23,1.28,2.1,2.5,1.95l0.5-0.06c-7.5,8.69-16.41,13.18-22.7,15.44c-7.85,2.81-13.96,3.06-14.02,3.06
			c-1.23,0.04-2.21,1.07-2.17,2.31c0.04,1.22,1.02,2.17,2.24,2.17c0.02,0,0.05,0,0.07,0c0.27-0.01,6.75-0.24,15.28-3.28
			c4.8-1.71,9.31-3.98,13.42-6.75c0.15-0.1,2.8-2.01,2.96-2.14c2.9-2.24,5.59-4.77,8.01-7.54c0.05,1.19,1.04,2.14,2.24,2.14
			c1.24,0,2.24-1.01,2.24-2.24V5.42C47.85,4.78,47.58,4.17,47.1,3.74z"/>
	</g>
</g>
</svg>
