<?xml version="1.0" encoding="utf-8"?>
<!-- Generator: Adobe Illustrator 24.1.0, SVG Export Plug-In . SVG Version: 6.00 Build 0)  -->
<svg version="1.1" id="Layer_1" xmlns="http://www.w3.org/2000/svg" xmlns:xlink="http://www.w3.org/1999/xlink" x="0px" y="0px"
	 viewBox="0 0 50 50" style="enable-background:new 0 0 50 50;" xml:space="preserve">
<g>
	<path d="M25.4,1.7C12.1,1.7,1.3,12,1.3,24.6c0,3.5,0.8,6.9,2.5,10.1L0.6,46.2c-0.2,0.6,0,1.2,0.4,1.6c0.3,0.3,0.7,0.5,1.2,0.5
		c0.2,0,0.3,0,0.4-0.1L14.4,45c3.4,1.6,7.2,2.5,11,2.5c13.3,0,24.1-10.3,24.1-22.9C49.5,12,38.7,1.7,25.4,1.7z M8.2,35.5
		c0.2-0.9,0.1-1.9-0.3-2.7c-1.4-2.6-2.1-5.3-2.1-8.2c0-10.1,8.8-18.4,19.6-18.4C36.2,6.2,45,14.5,45,24.6C45,34.7,36.2,43,25.4,43
		c-3.2,0-6.4-0.7-9.2-2.2c-0.5-0.3-1.1-0.4-1.6-0.4c-0.3,0-0.7,0-1,0.1l-7.3,2L8.2,35.5z"/>
	<g>
		<path d="M18.6,19.7c0-1.1,0.2-2.2,0.7-3.2c0.4-1,1-1.9,1.8-2.6c0.8-0.7,1.6-1.3,2.6-1.7c1-0.4,2.1-0.6,3.2-0.6s2.2,0.2,3.2,0.7
			s1.9,1,2.6,1.8c0.8,0.8,1.3,1.6,1.8,2.6c0.4,1,0.7,2.1,0.7,3.2S35,22.1,34.5,23c-0.4,1-1.1,1.8-1.8,2.6c-0.8,0.7-1.6,1.3-2.7,1.7
			c-1,0.4-2.1,0.6-3.2,0.6h-0.1v1.6c0,0.6-0.2,1.1-0.6,1.5c-0.4,0.4-0.9,0.6-1.4,0.6c-0.6,0-1.1-0.2-1.5-0.6
			c-0.4-0.4-0.6-0.9-0.6-1.5v-3.7c0-0.3,0.1-0.6,0.2-0.8c0.1-0.3,0.3-0.5,0.5-0.7c0.2-0.2,0.4-0.3,0.7-0.4c0.2-0.1,0.5-0.2,0.8-0.2
			h2.2c0.6,0,1.1-0.1,1.6-0.3c0.5-0.2,1-0.5,1.3-0.8c0.4-0.4,0.7-0.8,0.9-1.3c0.2-0.5,0.3-1,0.3-1.6s-0.1-1.1-0.3-1.6
			c-0.2-0.5-0.5-0.9-0.9-1.3c-0.4-0.4-0.8-0.7-1.3-0.9c-0.5-0.2-1.1-0.3-1.7-0.3c-0.6,0-1.1,0.1-1.6,0.3c-0.5,0.2-0.9,0.5-1.3,0.9
			c-0.4,0.4-0.7,0.8-0.9,1.3c-0.2,0.5-0.3,1.1-0.3,1.7c0,0.6-0.2,1.1-0.6,1.5c-0.4,0.4-0.8,0.6-1.4,0.6c-0.3,0-0.6-0.1-0.8-0.2
			c-0.3-0.1-0.5-0.3-0.7-0.5c-0.2-0.2-0.3-0.4-0.5-0.7c-0.1-0.3-0.2-0.5-0.2-0.8V19.7z M22.5,36.2c0-0.3,0.1-0.6,0.2-0.9
			c0.1-0.3,0.3-0.5,0.5-0.7c0.2-0.2,0.4-0.4,0.7-0.5c0.3-0.1,0.6-0.2,0.9-0.2c0.3,0,0.6,0.1,0.9,0.2c0.3,0.1,0.5,0.3,0.7,0.5
			c0.2,0.2,0.4,0.4,0.5,0.7c0.1,0.3,0.2,0.6,0.2,0.9c0,0.3-0.1,0.6-0.2,0.8c-0.1,0.3-0.3,0.5-0.5,0.7c-0.2,0.2-0.4,0.4-0.7,0.5
			c-0.3,0.1-0.6,0.2-0.9,0.2c-0.3,0-0.6-0.1-0.9-0.2c-0.3-0.1-0.5-0.3-0.7-0.5c-0.2-0.2-0.4-0.4-0.5-0.7
			C22.5,36.8,22.5,36.5,22.5,36.2z"/>
	</g>
</g>
</svg>
