<?xml version="1.0" encoding="utf-8"?>
<!-- Generator: Adobe Illustrator 24.1.0, SVG Export Plug-In . SVG Version: 6.00 Build 0)  -->
<svg version="1.1" id="Capa_1" xmlns="http://www.w3.org/2000/svg" xmlns:xlink="http://www.w3.org/1999/xlink" x="0px" y="0px"
	 viewBox="0 0 50 50" style="enable-background:new 0 0 50 50;" xml:space="preserve">
<style type="text/css">
	.st0{fill:#FF9F00;}
</style>
<g>
	<path class="st0" d="M48.45,12.61c-0.75-0.94-1.87-1.48-3.08-1.48H19.87c-1.85,0-3.43,1.26-3.84,3.06l-0.92,4.04H1.94
		c-0.69,0-1.26,0.56-1.26,1.26c0,0.69,0.56,1.26,1.26,1.26h12.59l-0.49,2.15H4.46c-0.69,0-1.26,0.56-1.26,1.26
		c0,0.69,0.56,1.26,1.26,1.26h9.01l-0.49,2.15H6.35c-0.69,0-1.26,0.56-1.26,1.26c0,0.69,0.56,1.26,1.26,1.26h6.07l-0.9,3.97
		c-0.27,1.17,0.01,2.39,0.76,3.33c0.75,0.94,1.87,1.48,3.08,1.48h25.51c1.85,0,3.43-1.26,3.84-3.07l4.52-19.86
		C49.48,14.77,49.2,13.55,48.45,12.61z M46.76,15.39l-4.52,19.86c-0.15,0.65-0.72,1.11-1.39,1.11H15.35c-0.91,0-1.59-0.85-1.39-1.74
		l4.52-19.86c0.15-0.65,0.72-1.11,1.39-1.11h25.51C46.29,13.65,46.96,14.49,46.76,15.39z"/>
	<path class="st0" d="M35.29,18.6c-0.28-0.42-0.65-0.74-1.11-0.95c-0.46-0.21-1.04-0.35-1.73-0.42l0.23-1.02
		c0.12-0.52-0.04-0.78-0.46-0.78c-0.42,0-0.69,0.27-0.81,0.8l-0.23,1.01c-1.4,0.11-2.55,0.52-3.43,1.21
		c-0.89,0.7-1.45,1.59-1.7,2.68c-0.19,0.83-0.16,1.52,0.09,2.05c0.25,0.53,0.64,0.94,1.18,1.23c0.53,0.29,1.22,0.55,2.05,0.78
		l-1.01,4.41c-0.42-0.12-0.74-0.29-0.95-0.52c-0.22-0.23-0.36-0.48-0.43-0.75c-0.07-0.28-0.14-0.67-0.2-1.19
		c-0.03-0.24-0.13-0.43-0.3-0.56c-0.18-0.13-0.41-0.2-0.71-0.2c-0.37,0-0.71,0.12-1.02,0.37c-0.3,0.24-0.49,0.52-0.56,0.82
		c-0.09,0.41-0.1,0.83-0.01,1.26c0.09,0.43,0.28,0.84,0.58,1.23c0.3,0.39,0.71,0.73,1.23,0.99c0.52,0.27,1.16,0.44,1.92,0.52
		l-0.58,2.56c-0.07,0.29-0.07,0.51,0,0.64c0.06,0.14,0.22,0.21,0.46,0.21c0.26,0,0.45-0.09,0.56-0.26c0.12-0.17,0.22-0.44,0.3-0.82
		l0.54-2.36c0.97-0.08,1.84-0.31,2.62-0.71c0.78-0.4,1.42-0.91,1.92-1.54c0.5-0.63,0.83-1.3,1-2.03c0.13-0.58,0.14-1.11,0.03-1.59
		c-0.11-0.48-0.34-0.9-0.67-1.25c-0.31-0.34-0.69-0.59-1.14-0.77c-0.45-0.18-1.06-0.37-1.83-0.59l0.9-3.95
		c0.78,0.26,1.19,0.78,1.23,1.57c0.04,0.67,0.38,1.01,1.04,1.01c0.35,0,0.67-0.11,0.96-0.35c0.3-0.23,0.48-0.5,0.55-0.82
		c0.07-0.28,0.05-0.6-0.03-0.94C35.67,19.25,35.51,18.92,35.29,18.6z M28.75,22.02c-0.23-0.26-0.29-0.63-0.18-1.13
		c0.12-0.52,0.37-0.92,0.74-1.18c0.37-0.26,0.85-0.47,1.45-0.63l-0.83,3.63C29.37,22.51,28.98,22.27,28.75,22.02z M31.94,26.3
		c0.29,0.3,0.37,0.73,0.24,1.28c-0.12,0.51-0.4,0.96-0.86,1.35c-0.45,0.39-1.03,0.64-1.73,0.77l0.95-4.15
		C31.19,25.74,31.66,26,31.94,26.3z"/>
</g>
</svg>
