<?xml version="1.0" encoding="utf-8"?>
<!-- Generator: Adobe Illustrator 24.1.0, SVG Export Plug-In . SVG Version: 6.00 Build 0)  -->
<svg version="1.1" id="Layer_1" xmlns="http://www.w3.org/2000/svg" xmlns:xlink="http://www.w3.org/1999/xlink" x="0px" y="0px"
	 viewBox="0 0 50 50" style="enable-background:new 0 0 50 50;" xml:space="preserve">
<g>
	<path d="M25.7,28.8l-0.1-0.1L19,22.5l-4.9-4.7l0,0l0,0c-0.7-0.7-1.6-1-2.5-1c-1,0-1.8,0.4-2.5,1.1c-0.7,0.7-1,1.6-1,2.5
		c0,0.9,0.4,1.8,1,2.5l6.2,5.7H3.3c-1.6,0-2.8,1.3-2.8,2.8l0,0c0,1.6,1.3,2.8,2.8,2.8h12.5l-4.1,5.5l-0.1,0.1l-0.1,0.1
		c-0.5,0.6-0.8,1.4-0.8,2.2c0,0.8,0.4,1.5,1,2.1c0.5,0.5,1.3,0.8,2,0.8c0.8,0,1.5-0.3,2.1-0.8l9.7-10.3l0,0l0,0
		c0.2-0.2,0.3-0.3,0.4-0.5C27,31.8,26.8,30,25.7,28.8L25.7,28.8z"/>
	<path d="M46.7,15.2H34.6l4-4c0.7-0.7,1-1.6,1.1-2.5s-0.4-1.8-1-2.5c-0.7-0.7-1.6-1.1-2.5-1.1c-0.9,0-1.8,0.4-2.5,1l-9.6,9.5
		c-0.1,0.1-0.3,0.3-0.4,0.5c-0.9,1.3-0.7,3.2,0.5,4.3l6.6,6.4l5.7,5.5c0.6,0.5,1.3,0.8,2.1,0.8c0.7,0,1.5-0.3,2-0.8
		c0.6-0.5,0.9-1.3,1-2.1c0-0.8-0.2-1.6-0.8-2.2l-6.6-7.2h12.5c1.6,0,2.8-1.3,2.8-2.8C49.5,16.5,48.2,15.2,46.7,15.2z"/>
</g>
</svg>
